# xmcd
#
# Track frame offsets:
#	182
#	11010
#	20192
#	31085
#	41950
#	53892
#	64445
#	76952
#	87727
#	99580
#	109492
#	118547
#	127727
#	136840
#	148060
#	156470
#
# Disc length: 2219 seconds
#
# Revision: 3
# Processed by: cddbd v1.5.1PL0 Copyright (c) Steve Scherf et al.
# Submitted via: audiograbber 1.83.01
#
DISCID=e708a910
DTITLE=Johnny Cash - The Great Love Songs Collection
DYEAR=1987
DGENRE=Country
TTITLE0=Fools Hall Of Fame
TTITLE1=Blue Train
TTITLE2=I Heard That Lonesome Whistle
TTITLE3=I Just Thought You'd Like To Know
TTITLE4=Port Of Lonely Hearts
TTITLE5=Cold Cold Heart
TTITLE6=Give My Love To Rose
TTITLE7=Train Of Love
TTITLE8=So Doggone Lonesome
TTITLE9=Story Of A Broken Heart
TTITLE10=Two Timin' Woman
TTITLE11=I Couldn't Keep From Crying
TTITLE12=Remember Me
TTITLE13=Don't Make Me Go
TTITLE14=Always Alone
TTITLE15=Goodbye Little Darlin'
EXTD=(c)1987 Pickwick International UK
EXTT0=
EXTT1=
EXTT2=
EXTT3=
EXTT4=
EXTT5=
EXTT6=
EXTT7=
EXTT8=
EXTT9=
EXTT10=
EXTT11=
EXTT12=
EXTT13=
EXTT14=
EXTT15=
PLAYORDER=
